<svg width="40" height="40" viewBox="0 0 40 40" fill="none" xmlns="http://www.w3.org/2000/svg">
  <path d="M30 22C30 28.6274 24.6274 34 18 34C11.3726 34 6 28.6274 6 22C6 15.3726 11.3726 10 18 10C24.6274 10 30 15.3726 30 22Z" fill="white"/>
  <path d="M18 6C18 7.65685 16.6569 9 15 9C13.3431 9 12 7.65685 12 6C12 4.34315 13.3431 3 15 3C16.6569 3 18 4.34315 18 6Z" fill="white"/>
  <path d="M34 20C34 21.6569 32.6569 23 31 23C29.3431 23 28 21.6569 28 20C28 18.3431 29.3431 17 31 17C32.6569 17 34 18.3431 34 20Z" fill="white"/>
  <path d="M31 20C31 20.5523 30.5523 21 30 21C29.4477 21 29 20.5523 29 20C29 19.4477 29.4477 19 30 19C30.5523 19 31 19.4477 31 20Z" fill="black"/>
  <path d="M16 6C16 6.55228 15.5523 7 15 7C14.4477 7 14 6.55228 14 6C14 5.44772 14.4477 5 15 5C15.5523 5 16 5.44772 16 6Z" fill="black"/>
  <path d="M22 22C22 23.1046 21.1046 24 20 24C18.8954 24 18 23.1046 18 22C18 20.8954 18.8954 20 20 20C21.1046 20 22 20.8954 22 22Z" fill="#FF9800"/>
  <path d="M30 26L28 30H32L30 26Z" fill="#FF9800"/>
  <path d="M30 26L28 30H32L30 26Z" fill="#FF9800"/>
  <path d="M30 26L28 30H32L30 26Z" fill="#FF9800"/>
  <path d="M30 26L28 30H32L30 26Z" fill="#FF9800"/>
</svg>
